<?xml version="1.0" encoding="UTF-8"?>
<svg id="Layer_1" data-name="Layer 1" xmlns="http://www.w3.org/2000/svg" viewBox="0 0 537.93 562.58">
  <defs>
    <style>
      .cls-1 {
        fill: #037cc1;
      }

      .cls-2 {
        fill: #fdfefe;
      }
    </style>
  </defs>
  <path class="cls-1" d="M460.26,479.52c-142.91,150.92-383.76,85.05-446.15-107.85C-48.92,176.79,107.61-33.83,316.72,4.57c217.49,39.94,292.65,317.5,143.55,474.95ZM94.26,469.65c152.08,154.16,400.08,53.03,424.72-155.28C540.32,134.03,379.56-25.95,198.44,29.07,10.94,86.03-41.38,332.15,94.26,469.65Z"/>
  <path class="cls-2" d="M94.26,469.65C-41.38,332.15,10.94,86.03,198.44,29.07c181.13-55.02,341.88,104.96,320.55,285.3-24.64,208.31-272.64,309.44-424.72,155.28ZM439.26,454.02c124.36-134.18,68.24-367.6-112.77-413.47C136.46-7.61-14,183.65,45.05,362.49c56.08,169.84,269.8,225.78,394.21,91.53Z"/>
  <path class="cls-1" d="M439.26,454.02c-124.42,134.25-338.14,78.31-394.21-91.53C-14,183.65,136.46-7.61,326.49,40.55c181.02,45.88,237.13,279.29,112.77,413.47ZM279.08,52.33h-9.76c-.56,12.8,2.01,26.69.79,39.42-.31,3.27-1.09,5.91-4.49,6.76-8.47,2.1-10.39-4.7-9.8-11.68-9.18-.13-11.36-1.53-8.78,8.41,3.83,14.8,26,14.61,30.91,3.6,3.22-7.22,1.15-14.26,1.09-21.35-.08-8.38.12-16.78.03-25.16ZM340.58,62.84l-36.8-7.94-12.71,50.68,37.54,8.7c.55-1.28,2.56-6.9,1.49-7.57l-27.78-6.38,4.22-14.94,25.07,5.64,1.03-7.28-25.07-5.92,3.01-13.5,28.07,6.78,1.93-8.28ZM225.08,81.58c5.11-4.9,6.06-11.27,1.82-17.19-8.44-11.8-30.47,2.17-41.58,3.71,2.64,5.72,13.57,48.43,15.72,49.92.82.57,1.59.3,2.46.18,3.85-.5,19.75-5.98,23.8-7.75,9.48-4.13,15.09-10.81,10.17-21.4-2.33-5.02-6.74-8.03-12.41-7.47ZM378.83,113.84c9.6,2.09,18.33-8.77,15.78-17.67-2.94-10.29-23.01-17.81-31.52-23.59l-26.2,45.3,7.44,4.63,11.61-18.34c4.59,4.2,16.1,7.01,16.71,13.96.47,5.36-7.37,14.27-6.64,17.73l9.06,4.97c-1.14-9.96,12.3-17.64,3.75-26.99ZM147.34,97.6c1.75-1.63,6.78-3.92,9.13-3.89,3.37.05,6.38,3.93,8.05,3.53l6.52-4.85c-11.23-18-44.18,2.91-33.87,20.49,7.86,13.41,20.62,3.3,31.06.76,3.22-.78,5.86-1.85,8.52.91,9.49,9.85-13.62,24.57-21.16,12.87l-6.99,4.88c13.08,22.18,52.95-7.04,34.49-24.86-11.57-11.17-25.35,5.49-35.5,2.49-5.54-1.64-3.75-9.1-.27-12.33ZM112.56,152.83l-11.22-8.62,17.92-21.87-5.55-5.49-24.34,29.53,39.7,33.11h1.54s23.91-29.28,23.91-29.28l-5.18-4.54h-1.49s-17.24,21.07-17.24,21.07c-.8.66-1.44.37-2.26-.01-.63-.29-10.48-8.32-10.47-9.02l16.36-19.63c.72-2.03-3.98-4.04-5.53-5.45l-16.13,20.21ZM436.59,156.58c1.93,1.36,5.38-6.85,5.65-8.2,3.69-18.04-13.86-32.84-31.32-28.32-27.04,6.99-32.3,47.07-1.35,51.54l-2.87,4.87,4.1,4.06,20.41-18.19c-1.77-2.4-13.01-16.28-14.52-16.28-1.11,0-5,3.76-4.82,4.8l8.59,10.24c-7.2,5.85-14.49,4.78-20.28-2.25-11.88-14.44,9.65-35.59,24.23-30.22,6.14,2.26,10.71,8.85,9.84,15.52-.3,2.27-2.36,4.47-2.23,6.03.19,2.28,4.43,3.74,4.55,6.41ZM332.69,149.13c-19.62,30.21-33.83,63.47-57.73,90.71-18.39,20.97-52.37,51.44-81.09,54.66-8.35.94-30.25-4.69-31.81,7.93-2.03,16.5,20.16,15.08,31.13,14.64,17.26-.7,38.57-3.83,55.14-8.61,10.12-2.91,34.42-14.44,43.51-12.03,6.4,1.69,6.41,9.54,7.95,10.08,14.76.29,41.16-8.08,48.17-22.16,1.34-2.69.4-12.05-.1-15.44-2.21-14.85-8.72-17.34.36-33.06,4.61-7.98,11.04-15.87,15.91-23.84,5.9-9.65,11.79-19.48,15.26-30.34l-46.71-32.55ZM181.89,186.15c15.5-15.02,43.91-31.62,66.1-24.35,14.78,4.84,14.96,24.32,5.62,34.2-2.98,3.15-13.03,6.65-8.72,11.65,4.69,5.45,16.11-7.39,18.56-11.56,11.75-19.94,1.91-41.67-21.6-43.9-38.58-3.67-73.61,30.77-91.16,61.65-1.58,2.79-8.98,16.84-8.85,18.83.25,3.85,4.68,5.6,7.37,2.19s5.67-12.07,8.22-16.52c6.41-11.15,15.22-23.24,24.44-32.18ZM73.89,223.62c-8.2,12.59,10.42,21.58,16.09,10.5s-10.69-18.79-16.09-10.5ZM467.84,222.08c-9.77-8.24-22.87,8.08-11.39,15.51,10.13,6.56,20.42-7.91,11.39-15.51ZM375.21,266.71c.14.22,3.3,1.52,3.88,1.47,4.11-.34,10.1-14.07,16.86-4.59,12.87,18.02,3.02,53.45-4.77,72.22-1.7,4.1-8.16,15.36-8.58,18.47-.72,5.38,4.23,7.38,7.63,2.33,10.92-16.2,21.21-51.98,20.09-71.39-.76-13.28-7.81-40.56-26.48-31-3.3,1.69-11.17,8.4-8.63,12.49ZM92.33,334.34c24.16-3.02,13.4-48.68-9.3-38.17-12.55,5.81-4.83,28.66-10.96,33.29-6.53,4.93-12.78-2.43-13.49-8.99-.88-8.06,1.79-11.81,8.9-15.06l-1.4-8.58c-25.76,2.55-16.47,51.4,7.49,42.37,13.2-4.97,8.18-19.86,10.87-30.39,1.63-6.38,9.82-6.35,12.54.25,3.24,7.86,1.17,12.85-6.07,16.76l1.43,8.51ZM460.59,307.33c-1.88-9.22-14.08-12.57-20.66-6.03s-6.99,25.91-10.1,35.28l51.72,10.49c1.48-12.06,13.02-36.51-.93-44.39-7.35-4.15-15.3-2.06-20.02,4.66ZM278.9,316.91c1.26-2.67,1-4.93-2.42-5.13-14.77,4.17-29.54,8.71-44.62,11.7-16.8,3.33-40.35,7.01-57.07,3.77-2.99-.58-9.54-3.6-11.58-3.5-1.22.06-.94.12-1.36,1.03-3.19,6.97,16.77,9.31,20.82,9.58,32.66,2.19,65.58-7.59,96.23-17.45ZM329.18,312.81c-6.03.34-18.63,3.09-23.65,6.35-3.51,2.28-3.49,8.66.33,9.76,5.78,1.66,21.75-3.11,26.73-6.7,2.49-1.79,3.49-4.6,2.59-7.61-.84-2.81-3.92-1.92-6-1.8ZM175.95,360.59h180.38v-3.75c-12.34.55-22.97-3.52-31.13-12.74-1.42-1.61-2.54-4.89-4.49-5.26-7.2-1.37-11.36,3.88-17.64,6.36-20.01,7.89-69.78,12.35-88.26.54-2.36-1.51-4.01-4.6-6.56-4.69-4.43-.15-12.69,6.46-17.15,8.43-13.15,5.79-26,5.05-37.27-4.25-1.88-1.55-6.73-7.81-7.49-8.26-.45-.26-6.05-1.07-7.13-1.14-3.02-.19,1.88,6.53,2.45,7.31,7.29,9.99,22.19,16.33,34.3,17.45ZM94.58,359.09c2.94-1.52,18.86-8.1,19.92-9.75,1-1.57-2.5-8.32-4.41-8.14l-46.19,23.49,3.68,7.89c1.05.78,13.53-7.31,16.16-7.48s7.12,2.75,10.08,2.99l-14.13,26.06c-.71,1.63,4.16,10.67,4.75,10.67l17.67-33.72,28.45,8.98-5.28-10.08c-8.96-3.79-20.16-5.41-28.88-9.37-.74-.34-1.76-.5-1.84-1.53ZM405.88,384.52c12.02,3.84,29.72,20.32,42.26,18.74,8.67-1.09,15.82-10.83,18.05-18.7,4.55-16.06-7.89-21.25-19.35-27.86-2.51-1.45-19.16-10.63-20.26-10.31l-4.21,8.16c8.38,4.37,17.14,8.51,25.23,13.4,8.29,5.01,14.55,8.52,8.66,19.41-2.87,5.32-7.05,7.23-13.12,6.05l-33.18-17.82-4.06,8.93ZM190.07,406.85c3.78,4.56,19.44,13.13,25.28,15.58,18.65,7.84,51,12.03,69.49,2.79,23.27-11.63,8.26-44.74-15.81-42.06-4.13.46-19.68,5.89-13.17,11.51,3.46,2.99,7.03-1.51,10.89-2.55,9.4-2.53,18.94,2.1,21,11.91,1.88,8.98-3.26,13.43-11.34,15.75-19.97,5.73-47.49,1.29-65.6-8.56-3.4-1.85-16.08-11.48-17.68-11.64-4.39-.44-5.78,3.99-3.06,7.27ZM158.4,416.01c-5.44-34.06-48.47-28.39-54.15,2.25l-8.93.07v4.51s9.01,0,9.01,0c-.42,9.45,7.18,18.85,15.76,22.12,16.56,6.31,35.72-7.44,37.49-24.36h9s0-4.51,0-4.51l-8.18-.07ZM382.97,408.02c-1.13-.09-6.73,6.01-6.06,7.31l36.15,35.95,25.72-25.17-5.47-5.47-18.85,18.68-31.49-31.31ZM371.32,419.84c-.3-.31-7.08,3.4-7.75,3.87-1.05.74-2.06,1.43-2.58,2.67l-8.8,30.2-10.86-19.16c-1.33-1.23-8.07,3.3-8.2,3.87l25.81,45.86,7.87-4.68c.06-.82-7.53-11.62-8.08-14.44-.71-3.67,1.63-7.09,2.11-10.69l26.93,13.14,10.56-4.9-35.25-17.25,8.25-28.48ZM162.03,455.15c-2.27-.3-6.25-4.77-8.23-3.49-.85.55-3.33,6.42-3.55,7.72-1.59,9.28,2.83,15.25,11.32,18.33,8.43,3.06,12.97,1.72,18.38-5.13,7.75-9.83,12.68-24.2,20.37-34.37-1.62-1.24-7.1-5.38-8.63-4.2-4.81,5.53-17.3,33.92-22.28,36.27-2.9,1.37-8.66-.38-9.94-3.21-2.19-4.86,3.24-10.96,2.57-11.92ZM246.06,460.34l2.09-7.16-41.82-11.59-1.51,8.25,15.8,4.21-11.28,43.01,8.97,2.29,11.27-43.5,16.47,4.5ZM257.7,505.34c12.07.55,24.3-.41,36.38,0v-8.25h-29.25v-15l26.21-.79.04-7.47c-1.01-1.01-20.78,1.22-24.42.79-1.09-.13-1.93-.09-2.59-1.16v-12.38l29.25-.75-.76-8.25-38.25.74c-.39,2.43.7,4.72.78,7.1.48,13.19-1.5,29.44-.04,42.04.15,1.26.36,2.39,1.15,3.42.63.99,1.3-.07,1.49-.06ZM330.08,472.33c-.73-.74-19.43,4.24-20.26,4.86-2.01,1.49.36,5.89.84,7.83l20.9-5.23-1.47-7.46Z"/>
  <path class="cls-2" d="M332.69,149.13l46.71,32.55c-3.47,10.86-9.35,20.7-15.26,30.34-4.87,7.96-11.31,15.86-15.91,23.84-9.08,15.72-2.56,18.21-.36,33.06.5,3.39,1.44,12.75.1,15.44-7.01,14.08-33.4,22.46-48.17,22.16-1.54-.53-1.55-8.38-7.95-10.08-9.1-2.41-33.39,9.12-43.51,12.03-16.58,4.77-37.89,7.9-55.14,8.61-10.97.45-33.16,1.86-31.13-14.64,1.55-12.62,23.46-7,31.81-7.93,28.72-3.22,62.7-33.69,81.09-54.66,23.9-27.24,38.11-60.51,57.73-90.71Z"/>
  <path class="cls-2" d="M175.95,360.59c-12.11-1.12-27.01-7.46-34.3-17.45-.57-.79-5.47-7.5-2.45-7.31,1.07.07,6.67.87,7.13,1.14.76.45,5.62,6.71,7.49,8.26,11.28,9.3,24.12,10.04,37.27,4.25,4.47-1.97,12.72-8.57,17.15-8.43,2.55.09,4.21,3.18,6.56,4.69,18.48,11.82,68.24,7.36,88.26-.54,6.29-2.48,10.45-7.74,17.64-6.36,1.95.37,3.06,3.66,4.49,5.26,8.17,9.21,18.79,13.29,31.14,12.74v3.75h-180.38Z"/>
  <path class="cls-2" d="M181.89,186.15c-9.23,8.94-18.04,21.03-24.44,32.18-2.56,4.45-5.47,13.04-8.22,16.52s-7.12,1.66-7.37-2.19c-.13-1.99,7.26-16.04,8.85-18.83,17.54-30.88,52.58-65.32,91.16-61.65,23.5,2.24,33.35,23.96,21.6,43.9-2.46,4.17-13.87,17.01-18.56,11.56-4.31-5.01,5.74-8.5,8.72-11.65,9.34-9.88,9.16-29.36-5.62-34.2-22.19-7.26-50.6,9.34-66.1,24.35Z"/>
  <path class="cls-2" d="M158.4,416.01l8.18.07v4.51s-9,0-9,0c-1.77,16.92-20.93,30.67-37.49,24.36-8.58-3.26-16.18-12.66-15.76-22.12h-9.01s0-4.5,0-4.5l8.93-.07c5.68-30.65,48.71-36.31,54.15-2.25ZM150.08,416.83c-3.01-24.66-31.03-17.25-36.75,1.5l36.75-1.5ZM148.57,421.34l-36,.74c1.08,24.31,30.45,17.47,36-.74Z"/>
  <path class="cls-2" d="M225.08,81.58c5.67-.56,10.08,2.45,12.41,7.47,4.92,10.59-.7,17.26-10.17,21.4-4.05,1.77-19.96,7.25-23.8,7.75-.87.11-1.64.38-2.46-.18-2.15-1.49-13.08-44.2-15.72-49.92,11.11-1.53,33.14-15.51,41.58-3.71,4.23,5.92,3.29,12.3-1.82,17.19ZM200.38,86.02c.98.85,15.93-3.91,17.58-5.17,4.14-3.16,3.38-10.95-1.48-12.83-4.5-1.74-14.83,3.8-19.88,4.6l3.78,13.4ZM202.58,92.84l5.69,15.68c7.44-3.41,22.94-3.06,21.27-14.51-1.86-12.74-19.84-2.01-26.96-1.17Z"/>
  <g>
    <path class="cls-2" d="M460.59,307.33c4.73-6.71,12.68-8.81,20.02-4.66,13.95,7.88,2.41,32.33.93,44.39l-51.72-10.49c3.11-9.37,3.2-28.41,10.1-35.28s18.78-3.19,20.66,6.03ZM453.81,331.32c-.17-6.08,6.37-18.05.3-22.4-2.52-1.8-7.55-2.17-9.83.12-1.54,1.55-5.41,19.28-4.7,20.02l14.22,2.25ZM476.32,336.59c-.15-7.84,8.93-22.65-1.91-26.21-12.98-4.26-11.53,14.4-14.41,22.11l16.33,4.09Z"/>
    <path class="cls-2" d="M405.88,384.52l4.06-8.93,33.18,17.82c6.06,1.19,10.24-.73,13.12-6.05,5.89-10.9-.36-14.4-8.66-19.41-8.09-4.89-16.85-9.03-25.23-13.4l4.21-8.16c1.1-.32,17.75,8.86,20.26,10.31,11.47,6.61,23.9,11.8,19.35,27.86-2.23,7.88-9.38,17.61-18.05,18.7-12.53,1.58-30.23-14.9-42.26-18.74Z"/>
  </g>
  <path class="cls-2" d="M375.21,266.71c-2.54-4.09,5.33-10.8,8.63-12.49,18.67-9.56,25.72,17.72,26.48,31,1.12,19.42-9.17,55.19-20.09,71.39-3.4,5.04-8.35,3.04-7.63-2.33.42-3.1,6.88-14.36,8.58-18.47,7.8-18.77,17.65-54.2,4.77-72.22-6.76-9.47-12.76,4.25-16.86,4.59-.58.05-3.74-1.25-3.88-1.47Z"/>
  <polygon class="cls-2" points="246.06 460.34 229.58 455.84 218.32 499.34 209.35 497.05 220.63 454.04 204.82 449.83 206.33 441.58 248.15 453.17 246.06 460.34"/>
  <path class="cls-2" d="M278.9,316.91c-30.65,9.86-63.57,19.65-96.23,17.45-4.06-.27-24.02-2.61-20.82-9.58.42-.91.14-.96,1.36-1.03,2.04-.11,8.59,2.92,11.58,3.5,16.72,3.25,40.27-.43,57.07-3.77,15.08-2.99,29.85-7.53,44.62-11.7,3.43.2,3.69,2.46,2.42,5.13Z"/>
  <path class="cls-2" d="M279.08,52.33c.09,8.37-.12,16.78-.03,25.16.07,7.09,2.13,14.13-1.09,21.35-4.91,11-27.08,11.2-30.91-3.6-2.57-9.94-.4-8.53,8.78-8.41-.59,6.98,1.33,13.78,9.8,11.68,3.4-.85,4.17-3.49,4.49-6.76,1.21-12.73-1.35-26.61-.79-39.42h9.76Z"/>
  <path class="cls-2" d="M162.03,455.15c.67.96-4.76,7.07-2.57,11.92,1.27,2.82,7.04,4.58,9.94,3.21,4.98-2.36,17.47-30.74,22.28-36.27,1.53-1.18,7.01,2.95,8.63,4.2-7.68,10.17-12.62,24.55-20.37,34.37-5.41,6.86-9.95,8.19-18.38,5.13-8.49-3.08-12.91-9.05-11.32-18.33.22-1.31,2.71-7.17,3.55-7.72,1.98-1.29,5.96,3.19,8.23,3.49Z"/>
  <path class="cls-2" d="M382.97,408.02l31.49,31.31,18.85-18.68,5.47,5.47-25.72,25.17-36.15-35.95c-.67-1.3,4.93-7.41,6.06-7.31Z"/>
  <path class="cls-2" d="M329.18,312.81c2.08-.12,5.16-1.01,6,1.8.9,3.01-.1,5.82-2.59,7.61-4.98,3.59-20.95,8.37-26.73,6.7-3.82-1.1-3.84-7.49-.33-9.76,5.02-3.26,17.62-6.01,23.65-6.35Z"/>
  <path class="cls-2" d="M73.89,223.62c5.4-8.29,21.95-.94,16.09,10.5s-24.29,2.09-16.09-10.5Z"/>
  <path class="cls-2" d="M467.84,222.08c9.02,7.61-1.26,22.07-11.39,15.51-11.48-7.43,1.62-23.75,11.39-15.51Z"/>
  <path class="cls-2" d="M330.08,472.33l1.47,7.46-20.9,5.23c-.47-1.93-2.85-6.34-.84-7.83.84-.62,19.53-5.6,20.26-4.86Z"/>
  <path class="cls-2" d="M190.07,406.85c-2.72-3.28-1.33-7.7,3.06-7.27,1.6.16,14.28,9.79,17.68,11.64,18.11,9.85,45.62,14.29,65.6,8.56,8.07-2.32,13.22-6.77,11.34-15.75-2.05-9.81-11.6-14.45-21-11.91-3.86,1.04-7.42,5.54-10.89,2.55-6.51-5.62,9.04-11.05,13.17-11.51,24.07-2.68,39.08,30.43,15.81,42.06-18.49,9.24-50.84,5.05-69.49-2.79-5.84-2.46-21.5-11.02-25.28-15.58Z"/>
  <path class="cls-1" d="M150.08,416.83l-36.75,1.5c5.72-18.75,33.73-26.16,36.75-1.5Z"/>
  <path class="cls-2" d="M378.83,113.84c8.54,9.35-4.89,17.03-3.75,26.99l-9.06-4.97c-.72-3.46,7.12-12.36,6.64-17.73-.61-6.95-12.12-9.76-16.71-13.96l-11.61,18.34-7.44-4.63,26.2-45.3c8.51,5.78,28.57,13.29,31.52,23.59,2.54,8.9-6.18,19.76-15.78,17.67ZM367.95,83.92l-8.3,14.18c6.72,3.35,17.51,14.65,24.01,5.94,7.76-10.4-9.65-15.11-15.71-20.12Z"/>
  <path class="cls-1" d="M148.57,421.34c-5.55,18.21-34.92,25.06-36,.74l36-.74Z"/>
  <path class="cls-1" d="M476.32,336.59l-16.33-4.09c2.88-7.71,1.43-26.37,14.41-22.11,10.84,3.56,1.76,18.36,1.91,26.21Z"/>
  <path class="cls-2" d="M436.59,156.58c-.12-2.67-4.36-4.13-4.55-6.41-.13-1.56,1.93-3.76,2.23-6.03.87-6.67-3.7-13.26-9.84-15.52-14.58-5.37-36.11,15.78-24.23,30.22,5.78,7.03,13.08,8.1,20.28,2.25l-8.59-10.24c-.18-1.03,3.71-4.79,4.82-4.8,1.51,0,12.75,13.88,14.52,16.28l-20.41,18.19-4.1-4.06,2.87-4.87c-30.95-4.47-25.69-44.54,1.35-51.54,17.46-4.52,35.01,10.28,31.32,28.32-.28,1.35-3.73,9.57-5.65,8.2Z"/>
  <path class="cls-2" d="M340.58,62.84l-1.93,8.28-28.07-6.78-3.01,13.5,25.07,5.92-1.03,7.28-25.07-5.64-4.22,14.94,27.78,6.38c1.07.67-.94,6.28-1.49,7.57l-37.54-8.7,12.71-50.68,36.8,7.94Z"/>
  <path class="cls-1" d="M453.81,331.32l-14.22-2.25c-.72-.74,3.16-18.47,4.7-20.02,2.27-2.3,7.31-1.93,9.83-.12,6.07,4.35-.47,16.31-.3,22.4Z"/>
  <path class="cls-1" d="M202.58,92.84c7.12-.84,25.1-11.57,26.96,1.17,1.67,11.45-13.83,11.1-21.27,14.51l-5.69-15.68Z"/>
  <path class="cls-2" d="M257.7,505.34c-.19,0-.86,1.06-1.49.06-.79-1.03-1-2.16-1.15-3.42-1.46-12.61.52-28.85.04-42.04-.09-2.37-1.18-4.66-.78-7.1l38.25-.74.76,8.25-29.25.75v12.38c.66,1.07,1.49,1.04,2.59,1.16,3.64.43,23.41-1.8,24.42-.79l-.04,7.47-26.21.79v15h29.25v8.25c-12.08-.41-24.3.55-36.38,0Z"/>
  <path class="cls-1" d="M200.38,86.02l-3.78-13.4c5.05-.81,15.38-6.34,19.88-4.6,4.87,1.88,5.62,9.67,1.48,12.83-1.66,1.26-16.6,6.02-17.58,5.17Z"/>
  <g>
    <path class="cls-2" d="M147.34,97.6c-3.48,3.23-5.28,10.69.27,12.33,10.15,3,23.93-13.66,35.5-2.49,18.46,17.82-21.41,47.04-34.49,24.86l6.99-4.88c7.53,11.7,30.65-3.02,21.16-12.87-2.66-2.76-5.3-1.7-8.52-.91-10.45,2.54-23.2,12.65-31.06-.76-10.31-17.58,22.64-38.49,33.87-20.49l-6.52,4.85c-1.67.41-4.68-3.48-8.05-3.53-2.35-.03-7.38,2.26-9.13,3.89Z"/>
    <path class="cls-2" d="M112.56,152.83l16.13-20.21c1.55,1.41,6.25,3.42,5.53,5.45l-16.36,19.63c0,.69,9.85,8.72,10.47,9.02.82.39,1.46.67,2.26.01l17.24-21.08h1.49s5.18,4.54,5.18,4.54l-23.91,29.28h-1.54s-39.7-33.1-39.7-33.1l24.34-29.53,5.55,5.49-17.92,21.87,11.22,8.62Z"/>
  </g>
  <path class="cls-2" d="M371.32,419.84l-8.25,28.48,35.25,17.25-10.56,4.9-26.93-13.14c-.47,3.6-2.82,7.02-2.11,10.69.55,2.81,8.14,13.61,8.08,14.44l-7.87,4.68-25.81-45.86c.13-.56,6.88-5.1,8.2-3.87l10.86,19.16,8.8-30.2c.52-1.24,1.53-1.93,2.58-2.67.67-.47,7.44-4.18,7.75-3.87Z"/>
  <path class="cls-1" d="M367.95,83.92c6.06,5.01,23.46,9.73,15.71,20.12-6.5,8.71-17.28-2.58-24.01-5.94l8.3-14.18Z"/>
  <g>
    <path class="cls-2" d="M92.33,334.34l-1.43-8.51c7.24-3.91,9.31-8.9,6.07-16.76-2.72-6.6-10.92-6.63-12.54-.25-2.68,10.53,2.33,25.41-10.87,30.39-23.97,9.03-33.25-39.82-7.49-42.37l1.4,8.58c-7.11,3.25-9.78,7-8.9,15.06.71,6.56,6.96,13.92,13.49,8.99,6.14-4.63-1.59-27.48,10.96-33.29,22.7-10.51,33.45,35.15,9.3,38.17Z"/>
    <path class="cls-2" d="M94.58,359.09c.08,1.03,1.09,1.19,1.84,1.53,8.72,3.96,19.92,5.58,28.88,9.37l5.28,10.08-28.45-8.98-17.67,33.72c-.59,0-5.47-9.04-4.75-10.67l14.13-26.06c-2.96-.24-7.33-3.17-10.08-2.99s-15.11,8.26-16.16,7.48l-3.68-7.89,46.19-23.49c1.9-.18,5.41,6.57,4.41,8.14-1.06,1.66-16.97,8.23-19.92,9.75Z"/>
  </g>
</svg>